# xmcd
#
# Track frame offsets: 
#        150
#        16394
#        42426
#        56638
#        76900
#        92057
#        104724
#        127048
#        140988
#        154828
#        168858
#        179895
#        196877
#        214177
#        227559
#
# Disc length: 3185 seconds
#
# Revision: 6
# Processed by: cddbd v1.5.2PL0 Copyright (c) Steve Scherf et al.
# Submitted via: ExactAudioCopy v1.3
#
DISCID=da0c6f0f
DTITLE=Fitzgerald, Ella - Queen Of Jazz CD1
DYEAR=2001
DGENRE=Jazz
TTITLE0=Moonlight In Vermont
TTITLE1=Cheek To Cheek
TTITLE2=Don't Worry 'bout Me
TTITLE3=A Foggy Day
TTITLE4=Chewin' Gum
TTITLE5=Sugar Blues
TTITLE6=Don't Be That Way
TTITLE7=Taking A Chance On Love
TTITLE8=My Wubba Dolly
TTITLE9=The One I Love Belongs To Someone Else
TTITLE10=Smooth Sailing
TTITLE11=Can't We Be Friends
TTITLE12=A Fine Romance
TTITLE13=Imagination
TTITLE14=Baby Won't You Please Come Home
EXTD=
EXTT0=
EXTT1=
EXTT2=
EXTT3=
EXTT4=
EXTT5=
EXTT6=
EXTT7=
EXTT8=
EXTT9=
EXTT10=
EXTT11=
EXTT12=
EXTT13=
EXTT14=
PLAYORDER=
